<svg fill="none" height="29" viewBox="0 0 38 29" width="38" xmlns="http://www.w3.org/2000/svg">
  <path
    d="M7.36158 28.3333V12.3612L2.33366 16.1946L0.666992 14L19.0003 0L26.167 5.47208V1.66667H30.6116V8.86125L37.3337 14L35.6391 16.1946L30.6116 12.3333V28.3333H20.9449V18.3333H17.0557V28.3333H7.36158ZM10.1391 25.5554H14.2782V15.5554H23.7224V25.5554H27.8337V10.2362L19.0003 3.48625L10.1391 10.2362V25.5554ZM15.5282 11.4029H22.4724C22.4724 10.4954 22.1252 9.74764 21.4307 9.15958C20.7363 8.57181 19.9262 8.27792 19.0003 8.27792C18.0745 8.27792 17.2644 8.57042 16.5699 9.15542C15.8755 9.74042 15.5282 10.4896 15.5282 11.4029Z"
    fill="#1C1B1F"/>
</svg>
