<svg height="311" version="1.1" viewBox="0 0 2000 311"
     width="2000" xmlns="http://www.w3.org/2000/svg">
  <svg data-id="lg_EgQnY2iUhsfKcFNKfP" data-version="2" height="311" viewBox="0 0 581 311" width="2000" x="0" xml:space="preserve" y="0"><rect fill="transparent" height="100%" width="100%"></rect><path
    d="M137.097 3.061C66.83 8.03 10.697 64.164 5.728 134.43c-.388 5.483 3.94 10.151 9.437 10.151h122.626a9.46 9.46 0 0 0 9.46-9.46V12.498c0-5.496-4.668-9.822-10.152-9.437ZM310.98 135.259C306.01 64.993 249.877 8.859 179.61 3.89c-5.483-.388-10.151 3.94-10.151 9.437v122.626a9.46 9.46 0 0 0 9.46 9.46h122.623c5.496 0 9.822-4.668 9.437-10.152Zm-13.388 28.764c-70.266 4.969-126.4 61.103-131.369 131.369-.388 5.483 3.94 10.151 9.437 10.151h122.626a9.46 9.46 0 0 0 9.46-9.46V173.46c0-5.496-4.668-9.822-10.152-9.437ZM5.728 176.57c4.969 70.265 61.103 126.4 131.369 131.368 5.483.388 10.151-3.94 10.151-9.437V175.875a9.46 9.46 0 0 0-9.46-9.46H15.165c-5.496 0-9.822 4.668-9.437 10.152Zm350.497 58.233q-3.36 0-6.64-.84t-5.84-2.08q-2.56-1.24-3.84-2.52l4.24-7.6q.88.72 2.76 1.88t4.36 2.04q2.48.88 4.96.88 4.08 0 6.84-1.92t2.76-5.6q0-3.04-1.6-5.04t-4.2-3.52q-2.6-1.52-5.6-2.92-3-1.4-5.72-3.16-3.12-2.08-5.44-5.52-2.32-3.44-2.32-8.88 0-5.36 2.44-8.8 2.44-3.44 6.48-5.16 4.04-1.72 8.84-1.72 3.84 0 6.56.8 2.72.8 4.56 1.92 1.84 1.12 2.88 2l-4.24 7.28q-1.36-1.44-4.08-2.68-2.72-1.24-6.08-1.24-3.92 0-6.24 1.8-2.32 1.8-2.32 5.32 0 3.12 2.08 5.32t5.32 4q3.24 1.8 6.68 3.64 3.44 1.84 6.08 4.32 2.16 1.92 3.68 4.8t1.52 6.48q0 5.44-2.52 9.2-2.52 3.76-6.76 5.64t-9.6 1.88m48.56-.8h-8.88v-50.96h-15.04v-7.84h39.12v7.84h-15.2zm16.32 0 28.16-58.88h.88l28.32 58.88h-10.32l-5.04-11.52h-26.96l-5.04 11.52zm28.72-41.84h-.16l-3.52 8-6.4 14.24h19.84l-6.32-14.16zm42.32 41.84h-8.72v-58.8h13.36q4.48 0 8.68.88 4.2.88 7.48 2.96 3.28 2.08 5.2 5.52 1.92 3.44 1.92 8.48 0 5.84-2.72 10.16t-8.24 6.64l14 24.16h-10.32l-11.84-22.24q-1.36.08-3.32.12-1.96.04-3.24.04h-2.24zm0-51.36v22h5.68q4.4 0 7.08-1.12 2.68-1.12 4.12-2.84 1.44-1.72 1.96-3.76t.52-3.8q0-3.92-1.8-6.2-1.8-2.28-4.96-3.28t-7.24-1zm48.88 51.36h-8.8v-58.8h8.8v26.24l20.16-26.24h10.72l-20.24 25.84 23.12 32.96h-10.96l-18-26.32-4.8 5.92zm-178.24 72.32h-8.88v-50.96h-15.04v-7.84h39.12v7.84h-15.2zm52.16 0h-28.4v-58.8h25.76v7.84h-16.88v16.24h13.6v8h-13.6v18.8h19.52zm17.84 0h-8.8v-58.8h8.8v26.24l20.16-26.24h10.72l-20.24 25.84 23.12 32.96h-10.96l-18-26.32-4.8 5.92z"
    fill="#111"></path></svg>
</svg>
